REM DIRINDEX 1\2,1\3,1\4,1\6,1\5\7,1\5\8
REM DIRNAME folder01,folder02,folder03,folder04,folder05,folder06,folder07,folder08
TITLE ""
FILE "DB4500_5th_3B_08.mp3" MP3
  TRACK 01 AUDIO
    TITLE "0:"
    INDEX 01 00:00:00
  TRACK 02 AUDIO
    TITLE "2:cjc114_1895"
    INDEX 01 00:00:03
  TRACK 03 AUDIO
    TITLE "0:"
    INDEX 01 00:01:09
  TRACK 04 AUDIO
    TITLE "3:cjc114_1896"
    INDEX 01 00:01:34
  TRACK 05 AUDIO
    TITLE "0:"
    INDEX 01 00:02:55
  TRACK 06 AUDIO
    TITLE "4:cjc114_1897"
    INDEX 01 00:03:08
  TRACK 07 AUDIO
    TITLE "0:"
    INDEX 01 00:08:09
  TRACK 08 AUDIO
    TITLE "2:cjc114_1898"
    INDEX 01 00:08:60
  TRACK 09 AUDIO
    TITLE "0:"
    INDEX 01 00:09:67
  TRACK 10 AUDIO
    TITLE "3:cjc114_1899"
    INDEX 01 00:10:18
  TRACK 11 AUDIO
    TITLE "0:"
    INDEX 01 00:11:13
  TRACK 12 AUDIO
    TITLE "4:cjc114_1900"
    INDEX 01 00:11:39
  TRACK 13 AUDIO
    TITLE "0:"
    INDEX 01 00:15:19
  TRACK 14 AUDIO
    TITLE "2:cjc114_1901"
    INDEX 01 00:15:70
  TRACK 15 AUDIO
    TITLE "0:"
    INDEX 01 00:16:71
  TRACK 16 AUDIO
    TITLE "3:cjc114_1902"
    INDEX 01 00:17:21
  TRACK 17 AUDIO
    TITLE "0:"
    INDEX 01 00:18:48
  TRACK 18 AUDIO
    TITLE "4:cjc114_1903"
    INDEX 01 00:18:72
  TRACK 19 AUDIO
    TITLE "0:"
    INDEX 01 00:21:58
  TRACK 20 AUDIO
    TITLE "2:cjc114_1904"
    INDEX 01 00:22:32
  TRACK 21 AUDIO
    TITLE "0:"
    INDEX 01 00:23:38
  TRACK 22 AUDIO
    TITLE "3:cjc114_1905"
    INDEX 01 00:23:61
  TRACK 23 AUDIO
    TITLE "0:"
    INDEX 01 00:24:57
  TRACK 24 AUDIO
    TITLE "4:cjc114_1906"
    INDEX 01 00:25:03
  TRACK 25 AUDIO
    TITLE "0:"
    INDEX 01 00:28:08
  TRACK 26 AUDIO
    TITLE "2:cjc114_1907"
    INDEX 01 00:28:59
  TRACK 27 AUDIO
    TITLE "0:"
    INDEX 01 00:29:60
  TRACK 28 AUDIO
    TITLE "3:cjc114_1908"
    INDEX 01 00:30:06
  TRACK 29 AUDIO
    TITLE "0:"
    INDEX 01 00:31:04
  TRACK 30 AUDIO
    TITLE "4:cjc114_1909"
    INDEX 01 00:31:29
  TRACK 31 AUDIO
    TITLE "0:"
    INDEX 01 00:34:22
  TRACK 32 AUDIO
    TITLE "2:cjc114_1910"
    INDEX 01 00:34:67
  TRACK 33 AUDIO
    TITLE "0:"
    INDEX 01 00:36:09
  TRACK 34 AUDIO
    TITLE "3:cjc114_1911"
    INDEX 01 00:36:35
  TRACK 35 AUDIO
    TITLE "0:"
    INDEX 01 00:37:56
  TRACK 36 AUDIO
    TITLE "4:cjc114_1912"
    INDEX 01 00:38:06
  TRACK 37 AUDIO
    TITLE "0:"
    INDEX 01 00:40:21
  TRACK 38 AUDIO
    TITLE "2:cjc114_1913"
    INDEX 01 00:40:72
  TRACK 39 AUDIO
    TITLE "0:"
    INDEX 01 00:42:06
  TRACK 40 AUDIO
    TITLE "3:cjc114_1914"
    INDEX 01 00:42:29
  TRACK 41 AUDIO
    TITLE "0:"
    INDEX 01 00:43:58
  TRACK 42 AUDIO
    TITLE "4:cjc114_1915"
    INDEX 01 00:44:09
  TRACK 43 AUDIO
    TITLE "0:"
    INDEX 01 00:46:64
  TRACK 44 AUDIO
    TITLE "2:cjc114_1916"
    INDEX 01 00:47:40
  TRACK 45 AUDIO
    TITLE "0:"
    INDEX 01 00:48:57
  TRACK 46 AUDIO
    TITLE "3:cjc114_1917"
    INDEX 01 00:49:08
  TRACK 47 AUDIO
    TITLE "0:"
    INDEX 01 00:50:31
  TRACK 48 AUDIO
    TITLE "4:cjc114_1918"
    INDEX 01 00:50:54
  TRACK 49 AUDIO
    TITLE "0:"
    INDEX 01 00:55:18
  TRACK 50 AUDIO
    TITLE "2:cjc114_1919"
    INDEX 01 00:55:69
  TRACK 51 AUDIO
    TITLE "0:"
    INDEX 01 00:56:67
  TRACK 52 AUDIO
    TITLE "3:cjc114_1920"
    INDEX 01 00:57:21
  TRACK 53 AUDIO
    TITLE "0:"
    INDEX 01 00:58:36
  TRACK 54 AUDIO
    TITLE "4:cjc114_1921"
    INDEX 01 00:58:66
  TRACK 55 AUDIO
    TITLE "0:"
    INDEX 01 01:02:32
  TRACK 56 AUDIO
    TITLE "2:cjc114_1922"
    INDEX 01 01:03:10
  TRACK 57 AUDIO
    TITLE "0:"
    INDEX 01 01:04:29
  TRACK 58 AUDIO
    TITLE "3:cjc114_1923"
    INDEX 01 01:04:60
  TRACK 59 AUDIO
    TITLE "0:"
    INDEX 01 01:05:71
  TRACK 60 AUDIO
    TITLE "4:cjc114_1924"
    INDEX 01 01:06:24
  TRACK 61 AUDIO
    TITLE "0:"
    INDEX 01 01:09:46
  TRACK 62 AUDIO
    TITLE "2:cjc114_1925"
    INDEX 01 01:10:24
  TRACK 63 AUDIO
    TITLE "0:"
    INDEX 01 01:11:35
  TRACK 64 AUDIO
    TITLE "3:cjc114_1926"
    INDEX 01 01:11:62
  TRACK 65 AUDIO
    TITLE "0:"
    INDEX 01 01:13:02
  TRACK 66 AUDIO
    TITLE "4:cjc114_1927"
    INDEX 01 01:13:30
  TRACK 67 AUDIO
    TITLE "0:"
    INDEX 01 01:17:73
  TRACK 68 AUDIO
    TITLE "2:cjc114_1928"
    INDEX 01 01:18:51
  TRACK 69 AUDIO
    TITLE "0:"
    INDEX 01 01:19:58
  TRACK 70 AUDIO
    TITLE "3:cjc114_1929"
    INDEX 01 01:20:12
  TRACK 71 AUDIO
    TITLE "0:"
    INDEX 01 01:21:43
  TRACK 72 AUDIO
    TITLE "4:cjc114_1930"
    INDEX 01 01:21:74
  TRACK 73 AUDIO
    TITLE "0:"
    INDEX 01 01:26:01
